HIERARCHY
ROOT hip
{
	OFFSET 0.000000 0.000000 0.000000
	CHANNELS 6 Xposition Yposition Zposition Xrotation Zrotation Yrotation 
	JOINT abdomen
	{
		OFFSET 0.000000 3.422050 0.000000
		CHANNELS 3 Xrotation Zrotation Yrotation 
		JOINT chest
		{
			OFFSET 0.000000 8.486693 -0.684411
			CHANNELS 3 Xrotation Zrotation Yrotation 
			JOINT neck
			{
				OFFSET 0.000000 10.266162 -0.273764
				CHANNELS 3 Xrotation Zrotation Yrotation 
				JOINT head
				{
					OFFSET 0.000000 3.148285 0.000000
					CHANNELS 3 Xrotation Zrotation Yrotation 
					End Site
					{
						OFFSET 0.000000 3.148289 0.000000
					}
				}
			}
			JOINT lCollar
			{
				OFFSET 3.422053 6.707223 -0.821293
				CHANNELS 3 Yrotation Zrotation Xrotation 
				JOINT lShldr
				{
					OFFSET 3.285171 0.000000 0.000000
					CHANNELS 3 Zrotation Yrotation Xrotation 
					JOINT lForeArm
					{
						OFFSET 10.129278 0.000000 0.000000
						CHANNELS 3 Yrotation Zrotation Xrotation 
						JOINT lHand
						{
							OFFSET 8.486692 0.000000 0.000000
							CHANNELS 3 Zrotation Yrotation Xrotation 
							End Site
							{
								OFFSET 4.106464 0.000000 0.000000
							}
						}
					}
				}
			}
			JOINT rCollar
			{
				OFFSET -3.558935 6.707223 -0.821293
				CHANNELS 3 Yrotation Zrotation Xrotation 
				JOINT rShldr
				{
					OFFSET -3.148289 0.000000 0.000000
					CHANNELS 3 Zrotation Yrotation Xrotation 
					JOINT rForeArm
					{
						OFFSET -10.266159 0.000000 0.000000
						CHANNELS 3 Yrotation Zrotation Xrotation 
						JOINT rHand
						{
							OFFSET -8.349810 0.000000 0.000000
							CHANNELS 3 Zrotation Yrotation Xrotation 
							End Site
							{
								OFFSET -4.106464 0.000000 0.000000
							}
						}
					}
				}
			}
		}
	}
	JOINT lThigh
	{
		OFFSET 5.338403 -1.642589 1.368821
		CHANNELS 3 Xrotation Zrotation Yrotation 
		JOINT lShin
		{
			OFFSET -2.053232 -20.121670 0.000000
			CHANNELS 3 Xrotation Zrotation Yrotation 
			JOINT lFoot
			{
				OFFSET 0.000000 -19.300380 -1.231939
				CHANNELS 3 Xrotation Yrotation Zrotation 
				End Site
				{
					OFFSET 0.000000 -2.463878 4.653993
				}
			}
		}
	}
	JOINT rThigh
	{
		OFFSET -5.338403 -1.642589 1.368821
		CHANNELS 3 Xrotation Zrotation Yrotation 
		JOINT rShin
		{
			OFFSET 2.053232 -20.121670 0.000000
			CHANNELS 3 Xrotation Zrotation Yrotation 
			JOINT rFoot
			{
				OFFSET 0.000000 -19.300380 -1.231939
				CHANNELS 3 Xrotation Yrotation Zrotation 
				End Site
				{
					OFFSET 0.000000 -2.463878 4.653993
				}
			}
		}
	}
}
MOTION
Frames: 13
Frame Time: 0.022176
-0.309380 40.664734 0.222572 -5.548564 0.000000 0.000000 -6.652878 -1.105105 -0.841350 19.454191 -1.455662 16.236668 -29.140160 18.364204 -19.503841 7.937302 -0.001432 -10.003116 -71.471062 -2.915300 28.212255 -35.269264 -12.142046 -14.870818 -49.034359 11.841357 -65.063591 -25.906199 9.399936 30.176224 11.093403 -2.408324 -20.805664 74.172150 19.637186 5.097499 40.044659 -13.594747 4.893800 68.322243 -15.491814 2.461627 -17.244545 11.230566 9.981378 44.144840 1.996143 -0.477433 -18.181160 6.210343 -15.777341 -12.793626 -21.454386 -6.663505 28.510839 0.244681 0.598994 -4.573013 -5.320096 25.111013 
-0.309380 40.736221 0.147629 -5.072535 0.000000 0.000000 -6.652878 -1.105105 -0.841350 18.953018 -1.455633 16.236713 -29.228575 18.380974 -19.447945 7.719137 -0.001434 -10.003107 -71.471062 -2.915300 28.212255 -35.269264 -12.142046 -14.870818 -49.034359 11.841357 -65.063591 -25.920322 9.395554 30.175430 10.835628 -2.454983 -20.645256 74.456413 19.642649 5.213805 40.125439 -13.495198 4.912834 68.156288 -15.507514 2.609470 -17.673038 11.199142 9.957664 43.761372 1.928130 -0.485616 -17.854532 6.227119 -15.711155 -13.118625 -21.393909 -6.587826 27.948486 0.350189 0.588967 -4.165084 -5.442736 25.028036 
-0.309380 40.807713 0.072685 -4.596554 0.000000 0.000000 -6.652878 -1.105105 -0.841350 18.451902 -1.455603 16.236763 -29.316982 18.397825 -19.392063 7.500869 -0.001434 -10.003098 -71.471062 -2.915300 28.212255 -35.269264 -12.142046 -14.870818 -49.034359 11.841357 -65.063591 -25.934439 9.391168 30.174635 10.577986 -2.502361 -20.485062 74.740685 19.647566 5.330136 40.206146 -13.395622 4.931714 67.990295 -15.522803 2.757369 -18.101440 11.167551 9.934196 43.377964 1.860069 -0.493342 -17.527933 6.244270 -15.645071 -13.443386 -21.333038 -6.512550 27.386200 0.455579 0.577906 -3.757286 -5.565951 24.945930 
-0.309380 40.879204 -0.002257 -4.120640 0.000000 0.000000 -6.652879 -1.105105 -0.841350 17.950869 -1.455574 16.236813 -29.405386 18.414755 -19.336201 7.282500 -0.001435 -10.003089 -71.471062 -2.915300 28.212255 -35.269264 -12.142046 -14.870818 -49.034359 11.841357 -65.063591 -25.948551 9.386781 30.173836 10.320482 -2.550455 -20.325085 75.024971 19.651936 5.446492 40.286789 -13.296023 4.950442 67.824242 -15.537680 2.905320 -18.529736 11.135790 9.910975 42.994614 1.791964 -0.500612 -17.201366 6.261793 -15.579088 -13.767909 -21.271778 -6.437684 26.823992 0.560833 0.565814 -3.349627 -5.689727 24.864693 
-0.309380 40.950691 -0.077201 -3.644806 0.000000 0.000000 -6.652879 -1.105105 -0.841350 17.449924 -1.455543 16.236856 -29.493774 18.431768 -19.280357 7.064026 -0.001436 -10.003077 -71.471062 -2.915300 28.212255 -35.269264 -12.142046 -14.870818 -49.034359 11.841357 -65.063591 -25.962669 9.382394 30.173040 10.063128 -2.599262 -20.165331 75.309242 19.655764 5.562862 40.367359 -13.196398 4.969018 67.658157 -15.552145 3.053323 -18.957907 11.103864 9.888001 42.611320 1.723820 -0.507424 -16.874846 6.279690 -15.513212 -14.092187 -21.210125 -6.363225 26.261894 0.665938 0.552693 -2.942118 -5.814059 24.784348 
-0.309380 41.022179 -0.152144 -3.169072 0.000000 0.000000 -6.652879 -1.105105 -0.841350 16.949095 -1.455513 16.236904 -29.582169 18.448864 -19.224535 6.845457 -0.001437 -10.003069 -71.471062 -2.915300 28.212255 -35.269264 -12.142046 -14.870818 -49.034359 11.841357 -65.063591 -25.976786 9.378009 30.172249 9.805919 -2.648782 -20.005804 75.593529 19.659052 5.679251 40.447872 -13.096752 4.987444 67.492012 -15.566193 3.201375 -19.385950 11.071775 9.865278 42.228107 1.655641 -0.513779 -16.548357 6.297956 -15.447441 -14.416214 -21.148087 -6.289182 25.699924 0.770878 0.538546 -2.534764 -5.938934 24.704882 
-0.309380 41.093670 -0.227087 -2.693453 0.000000 0.000000 -6.652879 -1.105105 -0.841350 16.448400 -1.455481 16.236950 -29.670557 18.466045 -19.168736 6.626789 -0.001438 -10.003058 -71.471062 -2.915300 28.212255 -35.269264 -12.142046 -14.870818 -49.034359 11.841357 -65.063591 -25.990900 9.373622 30.171455 9.548869 -2.699010 -19.846518 75.877785 19.661793 5.795647 40.528313 -12.997080 5.005718 67.325836 -15.579825 3.349469 -19.813852 11.039526 9.842807 41.844975 1.587432 -0.519677 -16.221922 6.316591 -15.381784 -14.739984 -21.085659 -6.215552 25.138115 0.875637 0.523375 -2.127576 -6.064340 24.626308 
-0.309380 41.165161 -0.302030 -2.217965 0.000000 0.000000 -6.652879 -1.105105 -0.841350 15.947857 -1.455450 16.236994 -29.758940 18.483305 -19.112953 6.408025 -0.001439 -10.003051 -71.471062 -2.915300 28.212255 -35.269264 -12.142046 -14.870818 -49.034359 11.841357 -65.063591 -26.005018 9.369236 30.170671 9.291977 -2.749946 -19.687466 76.162033 19.663986 5.912045 40.608685 -12.897386 5.023839 67.159622 -15.593047 3.497610 -20.241592 11.007120 9.820585 41.461937 1.519198 -0.525117 -15.895546 6.335598 -15.316245 -15.063496 -21.022860 -6.142343 24.576477 0.980201 0.507183 -1.720562 -6.190270 24.548641 
-0.309380 41.236649 -0.376973 -1.742625 0.000000 0.000000 -6.652879 -1.105105 -0.841350 15.447491 -1.455418 16.237041 -29.847305 18.500647 -19.057188 6.189168 -0.001439 -10.003042 -71.471062 -2.915300 28.212255 -35.269264 -12.142046 -14.870818 -49.034359 11.841357 -65.063591 -26.019133 9.364848 30.169874 9.035251 -2.801586 -19.528656 76.446274 19.665642 6.028445 40.688992 -12.797669 5.041811 66.993347 -15.605848 3.645792 -20.669170 10.974561 9.798622 41.078999 1.450943 -0.530100 -15.569228 6.354970 -15.250819 -15.386740 -20.959679 -6.069552 24.015047 1.084554 0.489974 -1.313731 -6.316711 24.471870 
-0.309380 41.308136 -0.451916 -1.267448 0.000000 0.000000 -6.652879 -1.105105 -0.841350 14.947312 -1.455386 16.237085 -29.935675 18.518070 -19.001450 5.970215 -0.001440 -10.003030 -71.471062 -2.915300 28.212255 -35.269264 -12.142046 -14.870818 -49.034359 11.841357 -65.063591 -26.033247 9.360461 30.169083 8.778698 -2.853929 -19.370102 76.730469 19.666752 6.144841 40.769241 -12.697932 5.059632 66.827080 -15.618244 3.794013 -21.096575 10.941853 9.776915 40.696175 1.382673 -0.534625 -15.242983 6.374711 -15.185519 -15.709714 -20.896130 -5.997189 23.453850 1.188683 0.471753 -0.907091 -6.443654 24.396008 
-0.309380 41.379627 -0.526859 -0.792451 0.000000 0.000000 -6.652879 -1.105105 -0.841350 14.447346 -1.455354 16.237133 -30.024033 18.535578 -18.945728 5.751172 -0.001441 -10.003021 -71.471062 -2.915300 28.212255 -35.269264 -12.142046 -14.870818 -49.034359 11.841357 -65.063591 -26.047363 9.356074 30.168297 8.522319 -2.906971 -19.211802 77.014648 19.667316 6.261228 40.849407 -12.598168 5.077301 66.660751 -15.630220 3.942269 -21.523792 10.908997 9.755466 40.313438 1.314391 -0.538692 -14.916803 6.394815 -15.120337 -16.032413 -20.832212 -5.925251 22.892902 1.292571 0.452522 -0.500648 -6.571084 24.321056 
-0.309380 41.451118 -0.601802 -0.317651 0.000000 0.000000 -6.652878 -1.105105 -0.841350 13.947607 -1.455320 16.237175 -30.112392 18.553169 -18.890034 5.532040 -0.001441 -10.003011 -71.471062 -2.915300 28.212255 -35.269264 -12.142046 -14.870818 -49.034359 11.841357 -65.063591 -26.061478 9.351687 30.167511 8.266124 -2.960711 -19.053761 77.298790 19.667337 6.377602 40.929523 -12.498388 5.094820 66.494408 -15.641779 4.090558 -21.950802 10.875996 9.734278 39.930832 1.246101 -0.542303 -14.590712 6.415284 -15.055285 -16.354830 -20.767921 -5.853742 22.332226 1.396204 0.432286 -0.094414 -6.698996 24.247034 
-0.309380 41.522606 -0.676745 0.156938 0.000000 0.000000 -6.652878 -1.105105 -0.841350 13.448116 -1.455287 16.237223 -30.200745 18.570841 -18.834358 5.312819 -0.001442 -10.003003 -71.471062 -2.915300 28.212255 -35.269264 -12.142046 -14.870818 -49.034359 11.841357 -65.063591 -26.075594 9.347301 30.166729 8.010113 -3.015145 -18.895985 77.582878 19.666817 6.493955 41.009567 -12.398585 5.112190 66.328011 -15.652923 4.238881 -22.377596 10.842847 9.713346 39.548359 1.177811 -0.545456 -14.264698 6.436114 -14.990361 -16.676968 -20.703278 -5.782665 21.771849 1.499566 0.411050 0.311607 -6.827376 24.173929 
